<?xml version="1.0" encoding="iso-8859-1"?>
<!-- Generator: Adobe Illustrator 19.0.0, SVG Export Plug-In . SVG Version: 6.00 Build 0)  -->
<svg version="1.1" id="Capa_1" xmlns="http://www.w3.org/2000/svg" xmlns:xlink="http://www.w3.org/1999/xlink" x="0px" y="0px"
	 viewBox="0 0 512 512" style="enable-background:new 0 0 512 512;" xml:space="preserve">
<path style="fill:#FEDC75;" d="M348.001,70.001c-53.07,22.824-91.96,19.842-152.999,0l146.999,302H502L348.001,70.001z"/>
<rect x="342" y="372" style="fill:#FFB571;" width="160" height="70"/>
<polygon style="fill:#6E6E6E;" points="268.001,442.001 195.001,321.001 122.001,442.001 "/>
<g>
	<polygon style="fill:#FFB571;" points="195.001,70.001 50.002,372.001 50.002,442.001 122.001,442.001 195.001,321.001 
		195.001,70.002 	"/>
	<polygon style="fill:#FFB571;" points="195.001,70.002 195.001,321.001 268.001,442.001 342.001,442.001 342.001,372.001 	"/>
</g>
<g>
	<polygon style="fill:#FEDC75;" points="195.001,321.001 268.001,442.001 268.001,338.001 	"/>
	<polygon style="fill:#FEDC75;" points="122.001,442.001 195.001,321.001 122.001,335.001 	"/>
</g>
<path d="M510.908,367.458l-153.999-302c-2.393-4.693-8.017-6.725-12.859-4.644C296.811,81.13,261.344,81.05,198.089,60.49
	c-4.625-1.499-9.995,0.795-12.102,5.183L41.143,367.349L1.319,437.04c-2.74,4.795-1.074,10.903,3.722,13.644
	c4.741,2.711,10.943,1.005,13.643-3.722l21.317-37.305v32.344c0,5.522,4.478,10,10,10H502c5.522,0,10-4.478,10-10c0,0,0-69.972,0-70
	C512,371.783,511.52,368.657,510.908,367.458z M112.002,335.001v97h-52v-57.724l125-260.345v198.804l-64.884,12.443
	C115.408,326.083,112.002,330.204,112.002,335.001z M132.001,343.265l42.846-8.217l-42.846,71.018V343.265z M139.714,432.001
	l55.288-91.641l55.288,91.641H139.714z M258.001,406.067l-42.204-69.956l42.204,9.828V406.067z M332.001,432.001h-54v-94
	c0-4.649-3.204-8.685-7.731-9.739l-65.268-15.199V113.394l127,260.911v57.696H332.001z M241.764,143.223
	c5.637,1.28,12.043,2.581,18.867,3.688c5.363,0.892,10.609-2.927,11.469-8.271c0.88-5.45-2.83-10.59-8.27-11.47
	c-10.66-1.73-20.34-4.01-26.59-5.63c-2.401-0.614-4.716-1.25-6.95-1.887L214.018,86.22c45.314,12.584,82.648,14.582,129.253-3.481
	l142.405,279.263H348.255L241.764,143.223z M352.001,432.001v-30.665l23.655,30.665H352.001z M492,432.001h-91.084l-38.571-50H492
	V432.001z"/>
<circle cx="302.09" cy="139.2" r="10"/>
<g>
</g>
<g>
</g>
<g>
</g>
<g>
</g>
<g>
</g>
<g>
</g>
<g>
</g>
<g>
</g>
<g>
</g>
<g>
</g>
<g>
</g>
<g>
</g>
<g>
</g>
<g>
</g>
<g>
</g>
</svg>
