<?xml version="1.0" encoding="iso-8859-1"?>
<!-- Generator: Adobe Illustrator 19.0.0, SVG Export Plug-In . SVG Version: 6.00 Build 0)  -->
<svg version="1.1" id="Capa_1" xmlns="http://www.w3.org/2000/svg" xmlns:xlink="http://www.w3.org/1999/xlink" x="0px" y="0px"
	 viewBox="0 0 471.563 471.563" style="enable-background:new 0 0 471.563 471.563;" xml:space="preserve">
<path style="fill:#388E3C;" d="M152.42,7.307c-32.499-14.65-70.73-6.817-94.848,19.435c-4.164,4.165-4.164,10.917,0,15.083
	l42.667,42.667c4.165,4.164,10.917,4.164,15.083,0l3.136-3.221v16.917c-0.001,3.75,1.967,7.225,5.184,9.152l46.443,27.861
	c0.671,0.414,1.387,0.75,2.133,1.003c21.047,6.594,40.241,18.062,56.021,33.472c1.994,2.023,4.712,3.167,7.552,3.179
	c1.399,0.003,2.784-0.273,4.075-0.811c3.989-1.649,6.591-5.539,6.592-9.856C246.458,96.096,205.924,29.515,152.42,7.307z"/>
<path style="fill:#4CAF50;" d="M414.01,26.741c-24.125-26.23-62.353-34.031-94.827-19.349
	c-53.525,22.123-94.059,88.704-94.059,154.795c0.001,4.317,2.603,8.207,6.592,9.856c1.291,0.538,2.676,0.813,4.075,0.811
	c2.831,0.005,5.548-1.115,7.552-3.115c15.758-15.421,34.928-26.911,55.957-33.536c0.748-0.25,1.464-0.586,2.133-1.003l46.443-27.861
	c3.217-1.927,5.185-5.402,5.184-9.152V81.269l3.115,3.115c4.165,4.164,10.917,4.164,15.083,0l42.667-42.667
	c4.164-4.165,4.164-10.917,0-15.083L414.01,26.741z"/>
<path style="fill:#6D4C41;" d="M267.791,172.064c-0.443-5.873-5.562-10.275-11.435-9.835c-5.53,0.477-9.77,5.116-9.749,10.667
	h-21.611c-0.442-5.874-5.563-10.278-11.438-9.836c-4.961,0.374-9.005,4.127-9.746,9.046l-21.333,288
	c-0.436,5.875,3.973,10.991,9.848,11.427c0.272,0.02,0.545,0.03,0.819,0.029h85.333c5.891,0.016,10.68-4.746,10.696-10.637
	c0.001-0.273-0.009-0.546-0.029-0.819L267.791,172.064z"/>
<g>
	<path style="fill:#795548;" d="M267.791,407.52h-64c-5.891,0-10.667-4.776-10.667-10.667s4.776-10.667,10.667-10.667h64
		c5.891,0,10.667,4.776,10.667,10.667S273.682,407.52,267.791,407.52z"/>
	<path style="fill:#795548;" d="M257.124,343.52h-42.667c-5.891,0-10.667-4.776-10.667-10.667s4.776-10.667,10.667-10.667h42.667
		c5.891,0,10.667,4.776,10.667,10.667S263.016,343.52,257.124,343.52z"/>
	<path style="fill:#795548;" d="M257.124,279.52h-42.667c-5.891,0-10.667-4.776-10.667-10.667s4.776-10.667,10.667-10.667h42.667
		c5.891,0,10.667,4.776,10.667,10.667S263.016,279.52,257.124,279.52z"/>
	<path style="fill:#795548;" d="M257.124,215.52h-42.667c-5.891,0-10.667-4.776-10.667-10.667c0-5.891,4.776-10.667,10.667-10.667
		h42.667c5.891,0,10.667,4.776,10.667,10.667C267.791,210.744,263.016,215.52,257.124,215.52z"/>
</g>
<path style="fill:#388E3C;" d="M400.058,117.643c-59.628-21.895-126.536-7.448-171.819,37.099
	c-4.17,4.161-4.178,10.914-0.018,15.085c1.458,1.462,3.31,2.469,5.33,2.899l124.096,26.453c4.606,0.988,9.315-1.163,11.584-5.291
	l4.757-8.661l6.912,13.824c1.5,2.996,4.32,5.113,7.616,5.717l58.667,10.667c0.633,0.118,1.276,0.175,1.92,0.171
	c5.891,0,10.667-4.776,10.667-10.667C460.422,166.113,436.479,131.11,400.058,117.643z"/>
<path style="fill:#4CAF50;" d="M243.343,154.741c-45.264-44.58-112.193-59.031-171.819-37.099
	c-36.393,13.447-60.337,48.397-59.733,87.189c0,5.891,4.776,10.667,10.667,10.667c0.644,0.005,1.287-0.053,1.92-0.171l58.667-10.667
	c3.296-0.604,6.116-2.721,7.616-5.717l6.912-13.824l4.757,8.661c2.269,4.128,6.978,6.279,11.584,5.291l124.011-26.453
	c5.762-1.227,9.438-6.893,8.211-12.654c-0.43-2.02-1.437-3.871-2.899-5.33L243.343,154.741z"/>
<g>
</g>
<g>
</g>
<g>
</g>
<g>
</g>
<g>
</g>
<g>
</g>
<g>
</g>
<g>
</g>
<g>
</g>
<g>
</g>
<g>
</g>
<g>
</g>
<g>
</g>
<g>
</g>
<g>
</g>
</svg>
