<?xml version="1.0" encoding="UTF-8"?>
<!DOCTYPE svg PUBLIC "-//W3C//DTD SVG 1.0//EN" "http://www.w3.org/TR/2001/REC-SVG-20010904/DTD/svg10.dtd">
<!-- Creator: CorelDRAW X7 -->
<svg xmlns="http://www.w3.org/2000/svg" xml:space="preserve" width="8.26772in" height="11.6929in" version="1.0" style="shape-rendering:geometricPrecision; text-rendering:geometricPrecision; image-rendering:optimizeQuality; fill-rule:evenodd; clip-rule:evenodd"
viewBox="0 0 8268 11693"
 xmlns:xlink="http://www.w3.org/1999/xlink">
 <defs>
  <style type="text/css">
   <![CDATA[
    .fil0 {fill:#002828}
    .fil2 {fill:#013E43}
    .fil1 {fill:#023233}
    .fil10 {fill:#056572}
    .fil9 {fill:#09515D}
    .fil4 {fill:#6B7F7D}
    .fil7 {fill:#A59D82}
    .fil6 {fill:#DABD9A}
    .fil3 {fill:#EDD18B}
    .fil5 {fill:#F7BB59}
    .fil8 {fill:#FEEFCB}
    .fil11 {fill:url(#id0)}
   ]]>
  </style>
  <linearGradient id="id0" gradientUnits="userSpaceOnUse" x1="1764.28" y1="-239.492" x2="6503.44" y2="4435.63">
   <stop offset="0" style="stop-opacity:1; stop-color:#F7BB59"/>
   <stop offset="1" style="stop-opacity:1; stop-color:#FAD496"/>
  </linearGradient>
 </defs>
 <g id="Layer_x0020_1">
  <metadata id="CorelCorpID_0Corel-Layer"/>
  <path class="fil0" d="M217 9002l1770 -1076 6064 -1223 0 2299 0 3393 -7834 0 0 -3393z"/>
  <path class="fil1" d="M217 9002c108,-16 203,-72 325,-104l904 -316c247,-85 177,-43 334,-195l139 -153c18,-21 31,-32 54,-55l76 -76c32,-28 365,-101 434,-119 49,-13 121,-22 176,-34 67,-14 110,-28 169,-41 303,-68 718,-155 987,-233 58,-17 113,-17 174,-34 147,-42 1123,-242 1169,-278 -95,-3 -161,-32 -237,-57l-505 -192c-42,-11 -84,-26 -107,-33l-360 -128c-44,-18 -7,-8 -45,-22l-413 -150 -804 -288c-136,-49 -272,-98 -408,-146 -170,-60 -225,-115 -437,-103 -170,10 -350,19 -520,31 -87,6 -177,14 -258,16 -88,2 -123,-31 -183,-74 -106,-75 -206,-129 -331,-212 -104,-70 -244,-170 -333,-208l0 3204z"/>
  <path class="fil2" d="M5849 6170l-146 113c-104,80 -471,130 -604,144l-207 41c-149,51 -809,125 -1076,219 -89,31 -230,86 -325,95l413 150c38,14 1,4 45,22l360 128c23,7 65,22 107,33l505 192c76,25 142,54 237,57 133,-14 549,-124 714,-162 479,-110 956,-209 1441,-335l738 -164 0 -1895c-66,26 -484,426 -597,532 -18,17 -97,89 -117,104 -68,50 -312,34 -410,41 -212,15 -191,1 -332,107l-746 578z"/>
  <path class="fil3" d="M217 4130l0 21c234,2 1378,317 1626,300 603,-44 366,-125 1050,154 183,75 315,134 519,140 169,5 1145,89 1200,77 28,50 98,62 151,83 325,125 206,107 594,117 159,5 268,13 412,57 43,13 335,88 364,110 36,-1 75,1 113,1 4,0 53,2 53,3 38,9 20,-14 34,20l65 -41 97 -52c78,-25 117,-67 190,-87 17,-19 11,-10 33,-25 33,-22 17,-6 41,-35 -49,0 -14,6 -62,-11 -282,-88 -721,-24 -1044,-63l7 -87c-23,14 -27,-28 -20,41 -124,21 -154,10 -255,-29 -134,-52 -541,-18 -865,-76l-733 -200c-36,-10 -70,-27 -114,-37 -45,-11 -86,-15 -126,-49 -53,1 -214,-49 -279,-66 -84,-23 -167,-51 -256,-71l-628 -50c-213,-10 -438,-20 -643,-37 -78,-6 -583,-7 -633,-60 -115,10 -289,-59 -419,-74 -132,-15 -310,30 -472,26z"/>
  <g>
   <path class="fil4" d="M1304 5307c36,18 195,57 270,78 104,30 191,72 293,49 91,-21 222,-74 308,-39 67,26 193,104 259,107 3,3 8,2 9,8l401 189c78,31 117,58 219,71 410,51 217,50 709,-140 236,-92 198,-84 300,-45l0 0 0 0c22,8 50,17 88,28l291 93 105 36c88,-45 417,-114 479,-141 40,-17 12,-2 31,-17 -171,1 -382,-47 -585,-90l0 0 -1 0c-47,-10 -94,-20 -140,-29l-243 -42c-63,-13 -218,-47 -332,-77 -158,-119 33,-82 -321,-164 -171,-39 -675,-167 -810,-183 -57,-33 -563,-140 -632,-124 -174,40 -113,67 -304,11 -76,-22 -244,-82 -310,-71 -17,-13 5,-1 -31,-18 -186,-91 -262,8 -333,8 -36,0 -322,-67 -358,-98 -106,9 -321,-76 -449,-96l0 88 0 233 0 46 0 37 1087 292zm1344 -259l0 0 0 0z"/>
  </g>
  <g>
   <path class="fil5" d="M217 3517l7834 0 0 -1233 0 0 0 -45 0 -2011 0 -751 0 -179 -284 0 -888 0 -2882 0 -1099 0 -668 0 -679 0 -175 0 -1159 0 0 2438 0 451 0 1330zm7834 0l-1709 -2337 1709 2631 0 158 0 99 0 224 -84 45 -57 10c-58,-7 -87,12 -109,64l3 -7c-63,-10 -27,-12 -78,8 -37,16 -37,27 -64,40 -66,35 -80,-10 -98,-16 -12,21 33,15 -76,36 11,40 8,11 18,67 -108,18 -60,32 -187,92 -41,20 -74,50 -116,66 -252,-370 -419,-533 -917,-507 21,27 -34,27 39,22 -112,-20 -245,90 -335,95 -6,24 11,12 -43,54 -64,51 -136,99 -166,186 -32,13 -76,138 -101,178l-20 87c-23,14 -27,-28 -20,41 -124,21 -154,10 -255,-29 -134,-52 -541,-18 -865,-76l-733 -200c-36,-10 -70,-27 -114,-37 -45,-11 -86,-15 -126,-49 -53,1 -214,-49 -279,-66 -84,-23 -167,-51 -256,-71 -424,-34 -849,-52 -1271,-87 -78,-6 -583,-7 -633,-60 -115,10 -289,-59 -419,-74 -132,-15 -310,30 -472,26l0 -41 0 -199 0 -148 0 -225 7834 0z"/>
  </g>
  <path class="fil6" d="M1297 4544c15,12 -4,1 28,18l500 184c35,13 62,21 93,32l55 27c2,1 6,8 7,5 1,-2 5,4 7,7 127,-3 -28,39 251,-2 418,-61 244,-56 754,62l64 2 22 15c3,1 8,5 10,6l19 13c78,-10 469,98 570,120 334,76 286,58 638,64 71,1 867,305 999,378l55 10c34,-6 -1,12 44,-19 10,-6 29,-23 39,-32 37,-32 38,-42 78,-50 17,-29 -4,-16 41,-44l51 -33c2,-2 5,-5 6,-6l12 -12c112,-106 535,-14 693,-76 -14,-34 4,-11 -34,-20 0,-1 -49,-3 -53,-3 -38,0 -77,-2 -113,-1 -29,-22 -321,-97 -364,-110 -144,-44 -253,-52 -412,-57 -388,-10 -269,8 -594,-117 -53,-21 -123,-33 -151,-83 -55,12 -1031,-72 -1200,-77 -204,-6 -336,-65 -519,-140 -684,-279 -447,-198 -1050,-154 -248,17 -1392,-298 -1626,-300l0 361 0 37c249,-14 837,-61 1042,-14l38 9z"/>
  <path class="fil7" d="M3107 4913l-19 -13c-2,-1 -7,-5 -10,-6l-22 -15 -64 -2c-510,-118 -336,-123 -754,-62 -279,41 -124,-1 -251,2 -2,-3 -6,-9 -7,-7 -1,3 -5,-4 -7,-5l-55 -27c-31,-11 -58,-19 -93,-32l-500 -184c-32,-17 -13,-6 -28,-18l-38 -9c-205,-47 -793,0 -1042,14l0 62c128,20 343,105 449,96 36,31 322,98 358,98 71,0 147,-99 333,-8 36,17 14,5 31,18 66,-11 234,49 310,71 191,56 130,29 304,-11 69,-16 575,91 632,124 135,16 639,144 810,183 354,82 163,45 321,164 79,26 396,91 397,90 281,35 640,150 904,148l271 -70c32,-19 13,-2 32,-29l-55 -10c-132,-73 -928,-377 -999,-378 -352,-6 -304,12 -638,-64 -101,-22 -492,-130 -570,-120z"/>
  <path class="fil8" d="M5660 4812l-7 87c323,39 762,-25 1044,63 48,17 13,11 62,11 47,-5 390,-198 413,-216l9 -6c-67,-294 -440,-548 -733,-555 -377,-9 -704,251 -788,616z"/>
  <path class="fil9" d="M748 5238c-22,71 1,31 -53,62 -60,36 -38,59 -38,225l230 0 2 -209c65,0 70,7 122,-16l29 -17c62,-34 -37,5 24,-13 -19,21 -6,18 -97,-4 -163,-40 -61,-18 -219,-28z"/>
  <path class="fil9" d="M4892 6468l207 -41c133,-14 500,-64 604,-144l146 -113c-114,14 -519,-167 -661,-203l-632 -225 -336 -114c-300,-69 -139,-118 -448,2 -492,190 -299,191 -709,140 -102,-13 -141,-40 -219,-71l-401 -189c-1,-6 -6,-5 -9,-8 -66,-3 -192,-81 -259,-107 -86,-35 -217,18 -308,39 -102,23 -189,-19 -293,-49 -75,-21 -234,-60 -270,-78l-1087 -292 0 783c89,38 229,138 333,208 125,83 225,137 331,212 60,43 95,76 183,74 81,-2 171,-10 258,-16 170,-12 350,-21 520,-31 212,-12 267,43 437,103 136,48 272,97 408,146l804 288c95,-9 236,-64 325,-95 267,-94 927,-168 1076,-219z"/>
  <path class="fil10" d="M6495 5120l-97 52 -65 41c-158,62 -581,-30 -693,76l-12 12c-1,1 -4,4 -6,6l-51 33c-45,28 -24,15 -41,44 -40,8 -41,18 -78,50 -10,9 -29,26 -39,32 -45,31 -10,13 -44,19 -19,27 0,10 -32,29l-271 70c-19,15 9,0 -31,17 -62,27 -391,96 -479,141l632 225c142,36 547,217 661,203l746 -578c141,-106 120,-92 332,-107 98,-7 342,9 410,-41 20,-15 99,-87 117,-104 113,-106 531,-506 597,-532l0 -516c-310,150 -573,305 -860,453l-19 12c-23,18 -366,211 -413,216 -24,29 -8,13 -41,35 -22,15 -16,6 -33,25 -73,20 -112,62 -190,87z"/>
  <path class="fil5" d="M7801 4411c42,-13 22,-1 63,-23 33,-18 29,-20 46,-41 -58,-7 -87,12 -109,64z"/>
  <path class="fil11" d="M8051 -702l0 4249 0 745c-292,151 -581,310 -874,462 -78,-333 -438,-520 -789,-505 -337,14 -666,214 -735,650l-74 -38 -120 -11 -113 -48 -723 -39 -329 -77 -1263 -388 -415 -11 -1508 -109 -491 -99 -400 31 0 -1469 0 -3343 7834 0z"/>
 </g>
</svg>
